<?xml version="1.0" standalone="no"?>
<!DOCTYPE svg PUBLIC "-//W3C//DTD SVG 1.1//EN" "http://www.w3.org/Graphics/SVG/1.1/DTD/svg11.dtd" >
<svg xmlns="http://www.w3.org/2000/svg">
<metadata></metadata>
<defs>
<font id="metaplus_bold_romanregular" horiz-adv-x="1187" >
<font-face units-per-em="2048" ascent="1638" descent="-410" />
<missing-glyph horiz-adv-x="460" />
<glyph horiz-adv-x="2048" />
<glyph horiz-adv-x="2048" />
<glyph unicode="&#xd;" horiz-adv-x="460" />
<glyph unicode=" "  horiz-adv-x="460" />
<glyph unicode="&#x09;" horiz-adv-x="460" />
<glyph unicode="&#xa0;" horiz-adv-x="460" />
<glyph unicode="!" horiz-adv-x="606" d="M127 143q0 72 50 121t120 49t119 -50t49 -120t-50 -120t-122 -50q-70 0 -118 49.5t-48 120.5zM129 1407l328 47l-58 -1001h-209z" />
<glyph unicode="&#x22;" horiz-adv-x="1064" d="M168 872v578h258v-578h-258zM643 872v578h258v-578h-258z" />
<glyph unicode="#" horiz-adv-x="1155" d="M61 412v184h197l35 258h-172v184h196l58 412h198l-57 -412h203l57 412h199l-57 -412h172v-184h-197l-35 -258h172v-184h-196l-58 -412h-198l57 412h-203l-57 -412h-199l57 412h-172zM457 596h202l35 258h-202z" />
<glyph unicode="$" horiz-adv-x="1171" d="M23 98l106 224q219 -115 391 -115q250 0 250 194q0 133 -186 185l-158 43q-205 55 -281 180q-59 98 -59 217q0 176 116.5 295t311.5 141v148h176v-150q221 -23 381 -137l-135 -205q-180 109 -332 109q-88 0 -143 -46t-55 -118q0 -55 34.5 -87t122.5 -56l172 -48 q360 -98 361 -423q0 -197 -135.5 -325t-362.5 -151v-166h-176v166q-213 18 -399 125z" />
<glyph unicode="%" horiz-adv-x="1716" d="M55 1087q0 160 95 258.5t251 98.5q164 0 263 -103q90 -92 90 -249q0 -168 -97.5 -262.5t-255.5 -94.5t-252 95.5t-94 256.5zM279 1094q0 -115 22 -154q31 -51 102 -51q123 0 123 207q0 125 -41 164q-35 32 -86 32q-92 0 -112 -98q-8 -35 -8 -100zM385 0l745 1423h195 l-745 -1423h-195zM954 332q0 160 95 258t251 98q164 0 263 -102q90 -92 90 -250q0 -168 -97.5 -262t-255.5 -94t-252 95t-94 257zM1178 338q0 -115 22 -154q31 -51 103 -51q123 0 122 207q0 125 -41 164q-35 33 -86 33q-92 0 -112 -99q-8 -35 -8 -100z" />
<glyph unicode="&#x26;" horiz-adv-x="1464" d="M100 358q0 236 256 355q-102 80 -134 147.5t-32 159.5q0 152 115 248t295 96q182 0 299 -90t117 -234q0 -119 -70 -196q-47 -53 -180 -127l-18 -10l237 -226q18 72 19 201v14h229v-12q0 -231 -66 -381l306 -303h-381l-86 86q-53 -47 -123 -74q-102 -41 -269 -41 q-246 0 -380 101.5t-134 285.5zM393 375q0 -203 230 -203q147 0 215 70l-334 321q-111 -68 -111 -188zM471 1040q0 -55 41 -108q16 -22 82 -88q135 70 135 192q0 59 -36 98.5t-91 39.5q-59 0 -95 -37t-36 -97z" />
<glyph unicode="'" horiz-adv-x="606" d="M174 872v578h258v-578h-258z" />
<glyph unicode="(" horiz-adv-x="716" d="M123 659q0 217 41 390q45 193 184 342q125 134 297 208l72 -161q-72 -51 -111 -90q-106 -106 -153 -248q-39 -113 -47 -269q-4 -72 -5 -167q0 -160 17 -316q20 -203 96 -336q70 -123 207 -198l-72 -160q-307 104 -438 424q-63 156 -82 422q-6 92 -6 159z" />
<glyph unicode=")" horiz-adv-x="704" d="M-12 -182q70 49 110 90q109 106 156 248q33 100 45 268q6 90 6 172q0 168 -16 311q-25 215 -95.5 338t-205.5 197l71 160q315 -111 439 -426q61 -158 80 -422q4 -61 4 -154q0 -242 -39 -395q-47 -188 -187 -340q-125 -137 -299 -209z" />
<glyph unicode="*" horiz-adv-x="987" d="M53 1069l66 195l268 -97v283h209v-283l268 88l62 -194l-269 -86l170 -234l-170 -125l-172 236l-166 -225l-165 125l172 223z" />
<glyph unicode="+" horiz-adv-x="1294" d="M74 492v258h432v432h258v-432h432v-258h-432v-433h-258v433h-432z" />
<glyph unicode="," horiz-adv-x="546" d="M68 -182q147 33 147 116q0 35 -53 66q-80 47 -80 143q0 74 52 125t126 51q90 0 147.5 -69.5t57.5 -175.5q0 -133 -80 -235.5t-209 -135.5z" />
<glyph unicode="-" horiz-adv-x="692" d="M102 442v238h492v-238h-492z" />
<glyph unicode="." horiz-adv-x="546" d="M94 150q0 74 52 126t126 52q76 0 129.5 -52.5t53.5 -125.5q0 -76 -53.5 -129.5t-127.5 -53.5q-76 0 -128 53.5t-52 129.5z" />
<glyph unicode="/" horiz-adv-x="983" d="M131 -315l549 1880h180l-549 -1880h-180z" />
<glyph unicode="0" horiz-adv-x="1122" d="M80 520q0 246 135 397.5t352 151.5q223 0 354.5 -148.5t131.5 -396.5q0 -246 -135.5 -397.5t-352.5 -151.5q-223 0 -354 148.5t-131 396.5zM381 526q0 -201 53 -282q43 -68 131 -68q187 0 187 342q0 201 -54 283q-43 68 -131 67q-186 0 -186 -342z" />
<glyph unicode="1" horiz-adv-x="851" d="M27 782l395 287h184v-846h164v-223h-649v223h221v531q-125 -78 -246 -119z" />
<glyph unicode="2" horiz-adv-x="1107" d="M68 879q227 203 516 202q182 0 290.5 -92t108.5 -244q0 -188 -192 -331q-45 -33 -138 -86q-72 -41 -143 -82l-53 -27q76 10 198 10h367l-59 -229h-854v250q45 18 210 106q203 115 283 199q72 72 72 147q0 137 -164 138q-119 0 -279 -131z" />
<glyph unicode="3" horiz-adv-x="1042" d="M-20 899q88 70 190 111q150 61 293 61q193 0 317.5 -101.5t124.5 -254.5q0 -182 -135 -264q-35 -20 -76 -37q115 -39 179.5 -121t64.5 -191q0 -211 -201.5 -345t-519.5 -134q-92 0 -170 10l-65 191q74 -14 155 -14q213 0 346 88t133 227q0 117 -90 156q-57 25 -190 24 q-76 0 -105 -2v229q66 -8 142 -8q227 0 227 162q0 154 -174 154q-166 0 -303 -115z" />
<glyph unicode="4" horiz-adv-x="1122" d="M47 0v186l395 875h283l-295 -664q-59 -133 -92 -166q20 4 43 5h231q23 0 50 -3q-2 27 -3 37q0 68 15 219l22 240l215 49v-362q0 -127 -6 -183q43 2 66 3h86v-236h-92q-37 0 -64 4q10 -31 10 -74v-288l-260 -33v346q0 16 4 51q-27 -6 -65 -6h-543z" />
<glyph unicode="5" horiz-adv-x="1011" d="M63 -160q109 -29 193 -28q164 0 267.5 84t103.5 215q0 98 -61.5 157.5t-162.5 59.5q-115 0 -299 -58l66 779h698l-41 -234h-401l-29 -285q53 10 97 11q190 0 310 -111t120 -287q0 -227 -181.5 -373.5t-463.5 -146.5q-80 0 -156 15z" />
<glyph unicode="6" horiz-adv-x="1148" d="M66 549q0 158 53 295q72 182 229 332q90 86 244.5 173t281.5 124l60 -197q-420 -135 -533 -473q84 68 220 67q186 0 312 -124.5t126 -307.5q0 -199 -138.5 -333t-340.5 -134q-225 0 -369.5 162t-144.5 416zM365 459q0 -131 53 -204t149 -73q92 0 147.5 68.5t55.5 183.5 q0 98 -50 156.5t-136 58.5q-96 1 -213 -67q-6 -37 -6 -123z" />
<glyph unicode="7" horiz-adv-x="940" d="M12 801l62 248h854l-45 -240q-309 -465 -430 -858q-18 -61 -60 -285l-301 -76q61 252 148 492q74 207 180 412q92 178 190 315q-31 -8 -82 -8h-516z" />
<glyph unicode="8" horiz-adv-x="1228" d="M70 352q0 115 67.5 211t173.5 135q-78 25 -140 112t-62 198q0 170 136 274t355 104q207 0 339 -99t132 -257q0 -104 -72.5 -187t-191.5 -116q123 -35 227 -131q90 -82 90 -221t-92 -247t-241 -144q-98 -25 -216 -25q-201 0 -323 76q-182 111 -182 317zM375 373 q0 -96 62.5 -153.5t168.5 -57.5q92 0 150.5 49t58.5 127q0 96 -79.5 148.5t-229.5 103.5q-131 -76 -131 -217zM391 1032q0 -94 125 -155q29 -14 84 -39q166 84 166 200q0 147 -186 148q-84 0 -136.5 -42t-52.5 -112z" />
<glyph unicode="9" horiz-adv-x="1155" d="M63 604q0 207 140.5 343t355.5 136q229 0 359.5 -148.5t130.5 -410.5q0 -414 -336 -692q-207 -172 -434 -252l-150 168q166 43 331 176t210 262q-84 -39 -166 -39q-188 0 -314.5 131.5t-126.5 325.5zM360 612q0 -111 56.5 -177t150.5 -66q90 -1 164 75q20 70 21 154 q0 129 -53.5 201.5t-145.5 72.5q-88 0 -140.5 -70.5t-52.5 -189.5z" />
<glyph unicode=":" horiz-adv-x="622" d="M133 139q0 76 52 130.5t126 52.5t125 -54.5t51 -128.5q0 -72 -52 -122t-126 -50q-72 0 -124 50.5t-52 121.5zM137 752q0 74 51 127t123 53q74 0 126 -52.5t52 -125.5q0 -74 -52 -125t-126 -51q-72 0 -123 51t-51 123z" />
<glyph unicode=";" horiz-adv-x="638" d="M115 -182q145 35 145 116q0 33 -47 62q-86 51 -86 143q0 78 52 129t128 51q88 0 146.5 -69.5t58.5 -177.5q0 -131 -82 -234.5t-209 -134.5zM133 754q0 74 50 127t122 53q74 0 127 -52.5t53 -125.5q0 -72 -51 -124t-123 -52q-74 0 -126 51t-52 123z" />
<glyph unicode="&#x3c;" horiz-adv-x="2576" d="M90 608q0 72 50 122t122 50t122 -50t50 -122t-50 -123t-122 -51t-122 51.5t-50 122.5zM362 229q0 72 50.5 122t122.5 50t122 -50t50 -122t-50.5 -123t-121.5 -51q-72 0 -122.5 51.5t-50.5 122.5zM362 987q0 72 50.5 122t122.5 50t122 -50t50 -122t-50.5 -123t-121.5 -51 q-72 0 -122.5 51t-50.5 123zM598 608q0 72 51 122t121 50q72 0 123 -50t51 -122t-51 -123t-123 -51t-122 51.5t-50 122.5zM635 -150q0 70 51 121.5t121 51.5q72 0 122 -51.5t50 -121.5q0 -72 -50 -123t-122 -51t-122 51.5t-50 122.5zM635 1366q0 72 51 122t121 50 q72 0 122 -50t50 -122t-50 -123t-122 -51t-122 51t-50 123zM1108 608q0 72 51 122t121 50q72 0 122 -50t50 -122t-50 -123t-122 -51t-122 51.5t-50 122.5zM1616 608q0 72 51 122t123 50t122 -50t50 -122t-50 -123t-122 -51t-123 51.5t-51 122.5zM2126 608q0 72 51 122 t121 50q72 0 122 -50t50 -122t-50 -123t-122 -51t-122 51.5t-50 122.5z" />
<glyph unicode="=" horiz-adv-x="1363" d="M121 295v258h1122v-258h-1122zM121 688v258h1122v-258h-1122z" />
<glyph unicode="&#x3e;" horiz-adv-x="2576" d="M90 608q0 72 50 122t122 50t122 -50t50 -122t-50 -123t-122 -51t-122 51t-50 123zM598 608q0 72 51 122t121 50q72 0 123 -50t51 -122t-51 -123t-123 -51t-122 51t-50 123zM1108 608q0 72 51 122t121 50q72 0 122 -50t50 -122t-50 -123t-122 -51t-122 51t-50 123z M1581 -150q0 70 51 121.5t121 51.5q72 0 122 -51.5t50 -121.5q0 -72 -50 -123t-122 -51t-122 51t-50 123zM1581 1366q0 72 51 122t121 50q72 0 122 -50t50 -122t-50 -123t-122 -51t-122 51t-50 123zM1616 608q0 72 51 122t123 50t122 -50t50 -122t-50 -123t-122 -51t-123 51 t-51 123zM1853 229q0 72 51.5 122t120.5 50q72 0 122.5 -50t50.5 -122t-50.5 -123t-122.5 -51t-122 51t-50 123zM1853 987q0 72 51.5 122t120.5 50q72 0 122.5 -50t50.5 -122t-50.5 -123t-122.5 -51t-122 51t-50 123zM2126 608q0 72 51 122t121 50q72 0 122 -50t50 -122 t-50 -123t-122 -51t-122 51t-50 123z" />
<glyph unicode="?" horiz-adv-x="995" d="M80 1288q150 156 397 156q164 0 273 -90q117 -96 116 -252q0 -190 -188 -311q-154 -98 -158 -267q0 -22 4 -71h-235l-10 53q-8 43 -9 82q0 176 189 311q78 55 88 68q47 43 47 98q0 141 -168 141q-100 0 -221 -94zM266 143q0 72 50.5 121t119.5 49q70 0 119 -50t49 -120 t-50 -120t-122 -50q-70 0 -118 49.5t-48 120.5z" />
<glyph unicode="@" horiz-adv-x="1638" d="M66 723q0 326 228 545t554 219q291 0 498 -174q227 -190 227 -500q0 -283 -180 -414q-121 -86 -275 -86q-158 0 -162 111h-4q-106 -111 -262 -111q-131 0 -213 96.5t-82 247.5q0 188 111 320q115 141 299 141q164 0 221 -117h4l17 93h192l-76 -404q-18 -98 -18 -135 q0 -57 55 -57q72 0 121 73q55 82 55 232q0 240 -149 373q-143 127 -385 127q-254 0 -411 -163t-157 -417q0 -264 172 -422q166 -154 431 -154q229 0 387 125h225q-109 -150 -273.5 -229.5t-355.5 -79.5q-332 0 -563 216t-231 544zM616 680q0 -182 142 -182q215 0 215 247 q0 189 -152 189q-92 0 -148.5 -73t-56.5 -181z" />
<glyph unicode="A" d="M-20 0l466 1427h310l448 -1427h-307l-100 338h-418l-100 -338h-299zM449 575h278q-25 74 -78 287q-14 61 -57 252l-68 -274q-36 -146 -75 -265z" />
<glyph unicode="B" horiz-adv-x="1253" d="M172 0v1423h481q233 0 350 -102t117 -254q0 -147 -96 -238q-51 -49 -131 -73q283 -82 283 -359q0 -158 -93 -266q-102 -119 -280 -127q-84 -4 -182 -4h-449zM455 854h170q88 0 123 18q29 14 51 58.5t22 87.5q0 111 -82 143q-45 18 -118 19h-166v-326zM459 233h186 q90 0 133 33q74 57 74 166q0 61 -28.5 110.5t-73.5 62.5t-113 13h-178v-385z" />
<glyph unicode="C" horiz-adv-x="1122" d="M76 682q0 262 96 442q82 156 227.5 243t317.5 87q231 0 360 -113l-129 -194q-106 80 -227 80q-158 0 -240 -121t-82 -369q0 -272 60 -381q87 -159 272 -159h2q129 0 244 92l131 -180q-162 -133 -395 -134q-291 0 -464 196t-173 511z" />
<glyph unicode="D" horiz-adv-x="1302" d="M172 0v1423h287q145 0 248 -8q184 -14 311 -141q194 -192 194 -563q0 -305 -141 -495.5t-348 -207.5q-106 -8 -205 -8h-346zM463 233h153q274 0 275 447q0 281 -71.5 399.5t-225.5 118.5h-131v-965z" />
<glyph unicode="E" horiz-adv-x="1097" d="M172 0v1423h811l-37 -233h-487v-330h407v-233h-403v-381h538v-246h-829z" />
<glyph unicode="F" horiz-adv-x="978" d="M172 0v1423h772l-33 -231h-452v-326h362v-233h-362v-633h-287z" />
<glyph unicode="G" horiz-adv-x="1318" d="M78 698q0 449 297 648q150 100 346 100q265 0 453 -164l-152 -178q-134 110 -294 110h-3q-129 0 -205 -71q-121 -117 -121 -459q0 -301 107 -405q82 -80 223 -80q94 0 162 34v324h-217l-37 234h551v-680q-215 -127 -473 -127q-315 0 -486 217q-152 195 -151 497z" />
<glyph unicode="H" horiz-adv-x="1329" d="M172 0v1423h285v-553h409v553h291v-1423h-291v635h-409v-635h-285z" />
<glyph unicode="I" horiz-adv-x="643" d="M172 0v1423h299v-1423h-299z" />
<glyph unicode="J" horiz-adv-x="626" d="M-29 -188q125 76 166 172q29 66 29 262v1177h291v-1147q0 -193 -21 -278q-55 -227 -332 -334z" />
<glyph unicode="K" horiz-adv-x="1259" d="M172 0v1423h293v-649l405 649h353l-455 -659l506 -764h-377l-432 743v-743h-293z" />
<glyph unicode="L" horiz-adv-x="989" d="M172 0v1423h293v-1185h510l-51 -238h-752z" />
<glyph unicode="M" horiz-adv-x="1730" d="M129 0l133 1423h367l186 -712q33 -123 49 -226q18 113 51 232l193 706h365l126 -1423h-280l-53 760q-10 145 -11 237q-23 -115 -53 -219l-225 -778h-244l-203 748q-37 137 -57 251q0 -100 -10 -256l-49 -743h-285z" />
<glyph unicode="N" horiz-adv-x="1333" d="M172 0v1423h317l273 -569q102 -215 156 -403q-20 225 -23 391l-6 581h272v-1423h-299l-244 545q-158 354 -192 467q10 -121 14 -404l9 -608h-277z" />
<glyph unicode="O" horiz-adv-x="1368" d="M78 707q0 231 84 406t237 259q127 70 295 70q285 0 449 -193.5t164 -529.5q0 -502 -318 -676q-121 -66 -284 -66q-307 0 -463 201q-164 211 -164 529zM397 707q0 -369 127 -461q68 -49 170 -49q150 0 216.5 120.5t66.5 393.5q0 211 -37 329q-20 68 -76 117 q-72 64 -174 64q-154 0 -221 -125q-72 -133 -72 -389z" />
<glyph unicode="P" horiz-adv-x="1181" d="M172 0v1423h375q270 0 395 -69q205 -115 205 -369q0 -297 -246 -414q-100 -47 -285 -47h-157v-524h-287zM459 758h149q78 0 109 8q49 14 83 66.5t34 146.5q0 100 -51.5 156.5t-141.5 56.5h-182v-434z" />
<glyph unicode="Q" horiz-adv-x="1363" d="M76 707q0 231 84 407t237 258q129 70 295 70q285 0 449 -193.5t164 -529.5q0 -227 -75 -397t-206 -256q25 -8 125 -70t178 -62q57 0 127 11l-76 -187q-45 -24 -121 -24h-6q-111 0 -262 100t-289 143q-305 0 -460 201q-164 211 -164 529zM395 707q0 -369 127 -461 q68 -49 170 -49q150 0 216.5 120.5t66.5 393.5q0 211 -37 329q-20 68 -76 117q-72 64 -174 64q-154 0 -221 -125q-72 -133 -72 -389z" />
<glyph unicode="R" horiz-adv-x="1243" d="M172 0v1423h530q188 0 303 -114.5t115 -302.5q0 -160 -93 -276t-224 -118q33 -27 59 -59q76 -96 342 -553h-338q-72 123 -133 233q-111 199 -151 263q-47 70 -84 86q-23 10 -45 12v-594h-281zM453 809h96q164 0 217 49t53 141q0 119 -80 162q-57 33 -184 33h-102v-385z " />
<glyph unicode="S" horiz-adv-x="1196" d="M37 98l106 224q219 -115 392 -115q249 0 249 192q0 135 -186 187l-158 43q-205 55 -280 180q-59 98 -60 217q0 195 142.5 317.5t367.5 122.5q276 0 475 -143l-135 -205q-180 109 -332 109q-88 0 -143 -46t-55 -118q0 -55 34.5 -87t123.5 -56l172 -48q360 -98 360 -423 q0 -217 -161 -348.5t-427 -131.5q-260 0 -485 129z" />
<glyph unicode="T" horiz-adv-x="1060" d="M33 1186v237h1026l-47 -237h-340v-1186h-291v1186h-348z" />
<glyph unicode="U" horiz-adv-x="1351" d="M164 432v991h293v-936q0 -123 24 -170q51 -98 195 -98q197 0 217 166q4 35 4 127v911h291v-958q0 -156 -23 -223q-35 -104 -141 -176q-133 -92 -342 -93q-354 0 -473 220q-45 80 -45 239z" />
<glyph unicode="V" horiz-adv-x="1208" d="M-18 1423h313l235 -741q37 -119 66 -248q25 117 82 285l242 704h301l-496 -1433h-260z" />
<glyph unicode="W" horiz-adv-x="1753" d="M23 1423h303l123 -561q57 -266 75 -469q27 244 74 455l127 575h313l131 -637q25 -123 62 -376q18 195 78 473l116 540h301l-344 -1435h-313l-127 579q-47 211 -68 414q-12 -100 -67 -410l-119 -583h-326z" />
<glyph unicode="X" horiz-adv-x="1185" d="M-10 0l446 762l-385 661h350l193 -383l194 383h342l-370 -643l442 -780h-346l-256 502l-254 -502h-356z" />
<glyph unicode="Y" horiz-adv-x="1130" d="M-33 1423h344l183 -389q45 -96 71 -182q23 55 76 178l184 393h338l-454 -837v-586h-299v586z" />
<glyph unicode="Z" horiz-adv-x="1075" d="M70 0v201l524 866q37 61 88 129q-66 -10 -145 -10h-439l64 237h852v-206l-529 -891q-29 -47 -73 -101q88 8 141 8h479l-74 -233h-888z" />
<glyph unicode="[" horiz-adv-x="581" d="M35 -319v1818h430v-184h-184v-1450h184v-184h-430z" />
<glyph unicode="\" horiz-adv-x="833" d="M-18 1487l233 72l612 -1596l-231 -72z" />
<glyph unicode="]" horiz-adv-x="606" d="M115 -135h184v1450h-184v184h430v-1818h-430v184z" />
<glyph unicode="^" horiz-adv-x="1363" d="M166 702l369 748h299l368 -748h-291l-227 488l-229 -488h-289z" />
<glyph unicode="_" horiz-adv-x="1024" d="M0 -154h1024v-102h-1024v102z" />
<glyph unicode="`" horiz-adv-x="692" d="M61 1346l119 213l424 -267l-84 -151z" />
<glyph unicode="a" horiz-adv-x="1056" d="M76 289q0 360 504 360q39 0 61 -2v43q0 90 -24.5 123t-98.5 33q-127 0 -303 -119l-117 197q70 45 170 86q147 61 287 61q274 0 338 -182q18 -54 18 -166v-23l-6 -352v-18q0 -82 17 -123q20 -47 82 -92l-146 -168q-106 45 -147 127q-113 -113 -275 -113q-174 0 -267 85 t-93 243zM369 299q0 -61 33.5 -99t86.5 -38q78 0 144 71l4 226h-12q-145 0 -200.5 -34t-55.5 -126z" />
<glyph unicode="b" horiz-adv-x="1120" d="M121 0q26 59 26 212v11v971q0 182 -18 258l281 66q10 -90 10 -187v-248q0 -68 -6 -92q78 84 223 84q193 0 304.5 -143.5t111.5 -388.5q0 -219 -101 -379q-119 -184 -323 -184q-145 0 -234 96q-4 -23 -28 -76h-246zM424 281q76 -68 154 -68q119 0 151 135q12 59 12 189 q0 125 -12 178q-31 133 -149 133q-80 0 -156 -84v-483z" />
<glyph unicode="c" horiz-adv-x="901" d="M74 516q0 340 215 485q115 78 260 78q115 0 203 -47q45 -25 102 -74l-133 -180q-88 82 -166 82q-178 0 -178 -352q0 -195 53 -264q45 -59 123 -60q90 0 188 86l17 15l125 -166q-51 -51 -97 -78q-111 -66 -256 -66q-217 0 -336.5 142.5t-119.5 398.5z" />
<glyph unicode="d" horiz-adv-x="1130" d="M72 506q0 246 125 399.5t323 153.5q113 0 187 -60q-8 45 -9 156v361l273 -43v-1090q0 -297 39 -383h-246q-10 20 -16 61q-100 -88 -242 -88q-199 0 -316.5 144.5t-117.5 388.5zM377 504q0 -168 41 -233.5t149 -65.5q80 0 135 67v500q-76 68 -149 68q-176 0 -176 -336z " />
<glyph unicode="e" horiz-adv-x="1044" d="M72 514q0 270 129 413.5t331 143.5q195 0 304 -110q139 -143 139 -459v-64h-606v-8q0 -254 221 -254q141 1 266 105l107 -164q-178 -145 -396 -146q-225 0 -360 147.5t-135 395.5zM373 639h317v12q0 106 -33 158q-39 61 -120 61q-164 0 -164 -227v-4z" />
<glyph unicode="f" horiz-adv-x="634" d="M63 860v189h101q-10 72 -10 143q0 156 88 241t250 85q131 0 247 -66l-88 -170q-72 35 -112 35q-115 0 -115 -119v-149h266l-69 -189h-195v-860h-268v860h-95z" />
<glyph unicode="g" horiz-adv-x="1130" d="M59 -102q0 57 25 106h254q-12 -29 -12 -67q0 -129 196 -130q115 0 172 35q68 41 68 107q0 121 -193 125l-116 2q-176 4 -254 33.5t-78 136.5q0 78 59 121q41 31 133 55q-225 57 -225 291q0 162 121 258t321 96q80 0 189 -27q88 -22 126 -22h3q117 0 217 90l115 -174 q-84 -78 -193 -78q-23 0 -72 6q61 -74 62 -172q0 -135 -109.5 -223t-277.5 -88q-20 0 -41 2q-109 -51 -109 -86q0 -25 45 -25l148 -2q219 -2 317 -94q90 -84 90 -223q0 -127 -84 -217q-127 -135 -413 -135q-276 0 -398 112q-86 80 -86 187zM526 561q168 0 168 150 q0 155 -166 155q-163 0 -163 -153q0 -152 161 -152z" />
<glyph unicode="h" horiz-adv-x="1142" d="M121 1452l280 66q18 -86 19 -256v-209q0 -18 -2 -51t-2 -37q118 112 294 112h3q100 0 174 -40t98 -109q27 -76 27 -195v-733h-269v705q0 143 -106 143q-111 0 -217 -96v-752h-279v1212q0 168 -20 240z" />
<glyph unicode="i" horiz-adv-x="561" d="M113 1337q0 70 50 120t122 50q70 0 118 -49t48 -121q0 -70 -49.5 -120t-120.5 -50q-70 0 -119 50.5t-49 119.5zM143 0v1030l275 43v-1073h-275z" />
<glyph unicode="j" horiz-adv-x="571" d="M18 -299q63 51 101 119q33 59 33 200v986l272 65v-1042q0 -225 -77 -323.5t-214 -156.5zM121 1337q0 72 50 122t120 50t120 -49t50 -119t-50.5 -121t-121.5 -51q-70 0 -119 49.5t-49 118.5z" />
<glyph unicode="k" horiz-adv-x="1052" d="M127 1454l276 68q16 -104 17 -340v-1182h-275v1182q0 149 -18 272zM426 594l268 455h330l-334 -439l412 -610h-324z" />
<glyph unicode="l" horiz-adv-x="620" d="M113 1452l280 64q14 -80 15 -273v-817q0 -201 17 -231.5t56 -30.5q16 0 31 4l47 -164q-74 -29 -164 -29q-190 0 -243 144q-25 66 -25 235v783q0 184 -14 315z" />
<glyph unicode="m" horiz-adv-x="1622" d="M106 999l248 68q23 -37 37 -106q111 106 256 106q162 0 254 -137q135 137 297 137q139 0 217 -76q68 -66 68 -246v-745h-266v692q0 80 -9 103q-16 47 -78 47q-84 0 -182 -88v-754h-260v682q0 84 -10 111q-18 51 -84 51q-90 0 -180 -80v-764h-269v731q0 198 -39 268z" />
<glyph unicode="n" horiz-adv-x="1110" d="M106 1006l244 69q39 -68 39 -131q37 27 121 78q84 45 188 45q88 0 158 -42t94 -110q20 -55 21 -149v-766h-271v682q0 78 -12 106q-18 47 -80 48q-86 0 -190 -95v-741h-275v760q0 142 -37 246z" />
<glyph unicode="o" horiz-adv-x="1079" d="M66 520q0 248 129 398.5t342 150.5q223 0 356 -158q121 -141 121 -383q0 -258 -130 -404.5t-347 -146.5q-213 0 -342 147.5t-129 395.5zM371 526q0 -182 35.5 -266t138.5 -84q170 0 170 354q0 209 -56 281q-42 55 -118 55q-104 0 -142 -106q-28 -81 -28 -224v-10z" />
<glyph unicode="p" horiz-adv-x="1114" d="M129 1026l244 43q16 -57 18 -98q80 98 258 98q113 0 207 -63q195 -131 195 -453q0 -170 -32 -269.5t-114 -187.5q-111 -119 -280 -119q-125 0 -219 56q4 -25 4 -86v-328l-265 -70v1213q0 164 -16 264zM412 256q74 -61 151 -61q102 0 145.5 75.5t43.5 255.5q0 143 -17 203 q-35 117 -141 117t-182 -80v-510z" />
<glyph unicode="q" horiz-adv-x="1126" d="M63 508q0 264 107 401q47 61 102 97q109 69 223 69h3q82 0 155.5 -31.5t89.5 -74.5q3 43 21 82h227q-24 -102 -24 -294v-16v-1126l-260 -70v398q0 74 6 106q-82 -74 -209 -74q-225 0 -344 170q-96 137 -97 363zM365 543q0 -227 57 -289q49 -53 127 -53q90 0 158 80v493 q-68 72 -158 72q-72 0 -119 -47q-65 -65 -65 -250v-6z" />
<glyph unicode="r" horiz-adv-x="720" d="M102 1008l246 65q37 -66 43 -149q70 94 156 133q37 16 90 16q49 0 102 -22l-75 -242q-39 20 -80 20q-92 0 -168 -88v-741h-275v700q0 206 -39 308z" />
<glyph unicode="s" horiz-adv-x="966" d="M29 88l98 201q195 -119 348 -119q59 0 99 34t40 85q0 100 -161 129l-123 22q-125 23 -193 107q-59 72 -59 188q0 154 111.5 248t293.5 94q174 0 375 -98l-90 -184q-148 75 -255 75h-3q-133 0 -133 -102q0 -72 131 -106l127 -33q145 -37 209 -119q57 -74 57 -178 q0 -164 -124 -264.5t-324 -100.5q-193 0 -424 121z" />
<glyph unicode="t" horiz-adv-x="684" d="M23 860v189h104q0 170 10 247l279 70q-16 -154 -17 -317h246l-70 -189h-176v-526q0 -100 25 -134t94 -34q29 0 98 20l35 -163q-115 -47 -223 -48q-104 0 -181 42t-102 112q-18 51 -18 162v569h-104z" />
<glyph unicode="u" horiz-adv-x="1089" d="M121 352v672l270 51v-674q0 -127 23.5 -174t95.5 -47q51 0 102.5 31t67.5 70v737l262 55v-801q0 -115 64 -190l-195 -111q-55 39 -82 103q-104 -100 -276 -101q-111 0 -197 47.5t-113 122.5q-22 63 -22 197v12z" />
<glyph unicode="v" horiz-adv-x="958" d="M-25 1032l281 35l152 -473q41 -131 67 -252q16 117 64 266l141 441h287l-383 -1049h-228z" />
<glyph unicode="w" horiz-adv-x="1458" d="M18 1030l273 31l86 -404q25 -113 59 -325q12 94 76 364l98 353h258l84 -347q43 -180 78 -370q27 203 57 342l80 375h283l-299 -1049h-252l-94 360q-45 176 -60 254q-6 33 -16 105q-4 -31 -24 -135q-10 -47 -91 -369l-53 -215h-256z" />
<glyph unicode="x" horiz-adv-x="1026" d="M-49 0l387 559l-291 440l285 80q90 -150 141 -256q12 -25 33 -69q23 57 92 204q29 57 49 91h324l-312 -484l377 -565h-348l-110 193q-37 72 -82 155q-23 -68 -105 -203l-88 -145h-352z" />
<glyph unicode="y" horiz-adv-x="1017" d="M-12 1032l280 33l183 -612q18 -59 55 -217q10 57 33 167q14 63 41 146l157 500h289l-381 -1065q-96 -270 -200.5 -347t-254.5 -96l-94 180q119 33 170 70q43 31 78 86q29 45 59 123h-69z" />
<glyph unicode="z" horiz-adv-x="933" d="M49 0v170l494 686h-453v193h778v-189l-462 -670h481l-66 -190h-772z" />
<glyph unicode="{" horiz-adv-x="798" d="M53 473v234q72 0 129 22q92 37 92 119v354q0 297 265 297h215v-233h-101q-133 0 -133 -131v-330q0 -125 -69 -174q-43 -31 -136 -39v-4q92 -6 136 -37q70 -49 69 -174v-332q0 -131 133 -131h101v-233h-215q-117 0 -187 69q-78 78 -78 230v352q0 82 -92 119 q-57 23 -129 22z" />
<glyph unicode="|" horiz-adv-x="454" d="M98 -37v1585h258v-1585h-258z" />
<glyph unicode="}" horiz-adv-x="802" d="M59 -86h101q133 0 133 131v330q0 125 69 174q43 31 136 39v4q-92 6 -136 37q-70 49 -69 174v332q0 131 -133 131h-101v233h222q113 0 182 -69q76 -78 76 -230v-352q0 -82 90 -119q55 -23 131 -22v-234q-76 0 -131 -22q-90 -37 -90 -119v-355q0 -297 -265 -296h-215v233z " />
<glyph unicode="~" horiz-adv-x="1363" d="M209 643q92 176 256 176q78 0 227 -65q168 -74 209 -74q53 0 103 45q27 25 77 94l74 -221q-92 -176 -256 -176q-78 0 -227 65q-168 74 -209 74q-53 0 -103 -45q-27 -25 -77 -94z" />
<glyph unicode="&#xa1;" horiz-adv-x="561" d="M106 1276q0 70 50.5 120t122.5 50q70 0 117.5 -49t47.5 -121q0 -70 -49 -120t-121 -50q-70 0 -119 50t-49 120zM115 -35l57 1002h209l61 -955z" />
<glyph unicode="&#xa2;" horiz-adv-x="925" d="M88 516q0 338 215 485q63 45 148 64v199h192v-197q55 0 123 -35q43 -23 102 -74l-133 -180q-88 82 -166 82q-178 0 -178 -352q0 -195 53 -264q45 -59 123 -60q90 0 189 86l16 15l125 -166q-53 -53 -109 -84q-66 -37 -145 -51v-211h-192v211q-172 29 -267.5 168t-95.5 364 z" />
<glyph unicode="&#xa3;" horiz-adv-x="1245" d="M117 0v233h196v406h-196v209h196v145q0 197 129 332q143 150 379 150q274 0 428 -140l-205 -219q-88 88 -186 88q-238 0 -237 -256v-100h319v-209h-319v-406h518v-233h-1022z" />
<glyph unicode="&#xa4;" horiz-adv-x="915" d="M63 905l242 142q31 -49 82 -144q33 4 62 4q51 0 77 -6q8 16 27 55q16 33 49 91l234 -142l-91 -139q55 -78 56 -211q-1 -115 -60 -205l97 -145l-242 -142q-29 49 -82 144q-18 -4 -61 -4q-41 0 -78 6l-27 -55q-16 -33 -49 -91l-233 142l90 139q-53 76 -54 207q0 123 58 209 zM326 557q0 -119 22 -154q33 -51 103 -51q123 0 122 207q0 123 -41 164q-33 33 -86 33q-92 0 -112 -99q-8 -35 -8 -100z" />
<glyph unicode="&#xa5;" horiz-adv-x="1159" d="M-27 1423h344l183 -389q45 -96 71 -182q23 55 76 178l184 393h338l-313 -573h211v-211h-324l-28 -53v-103h352v-211h-352v-272h-299v272h-346v211h346v103l-29 53h-317v211h206z" />
<glyph unicode="&#xa7;" horiz-adv-x="1257" d="M82 -51l262 129q16 -70 86 -109q61 -33 137 -32q164 0 164 106q0 74 -160 141q-248 106 -297 140q-160 106 -159 276q0 193 178 303q-129 86 -129 236q0 168 143 264q125 84 297 84q350 0 459 -223l-258 -148q-45 125 -189 125q-53 0 -90 -27q-43 -31 -43 -81 q0 -78 166 -152q272 -117 307 -139q166 -106 166 -267q0 -82 -48 -155.5t-124 -110.5q113 -90 113 -243q0 -184 -168 -289q-143 -86 -336 -86q-356 0 -477 258zM397 657q0 -66 54 -108q27 -20 110 -60l209 -96q70 41 70 125t-133 148l-238 112q-72 -41 -72 -121z" />
<glyph unicode="&#xa8;" horiz-adv-x="1021" d="M143 1300q0 63 47 110.5t113 47.5q63 0 108.5 -46t45.5 -112q0 -63 -46 -110t-112 -47q-63 0 -109.5 47t-46.5 110zM575 1300q0 66 47.5 112t112.5 46q63 0 108.5 -46t45.5 -112q0 -63 -46 -110t-112 -47q-63 0 -109.5 46t-46.5 111z" />
<glyph unicode="&#xa9;" horiz-adv-x="1638" d="M57 725q0 315 223.5 538.5t538.5 223.5t538.5 -223.5t223.5 -538.5t-223 -538.5t-539 -223.5q-315 0 -538.5 223.5t-223.5 538.5zM266 725q0 -238 162 -408t391 -170t391 170t162 408t-161.5 408t-391.5 170q-229 0 -391 -170t-162 -408zM459 709q0 186 102.5 305 t272.5 119q135 0 229 -78l-94 -135q-76 51 -133 51q-154 0 -154 -234q0 -139 38 -200.5t124 -61.5q76 0 137 57l100 -126q-117 -88 -250 -89q-170 0 -271 106.5t-101 285.5z" />
<glyph unicode="&#xaa;" horiz-adv-x="827" d="M45 473v160h748v-160h-748zM70 993q0 270 379 271h45v30q0 63 -15 86q-18 31 -78 31q-98 0 -227 -88l-88 147q37 25 129 64q111 47 215 47q203 0 252 -137q16 -45 14 -141l-4 -265v-14q0 -61 14.5 -94t59.5 -66l-98 -127q-96 39 -121 97q-16 -16 -49 -43 q-59 -43 -158 -43q-270 0 -270 245zM289 1001q0 -102 92 -102q57 0 106 53l5 170h-11q-109 0 -150.5 -25.5t-41.5 -95.5z" />
<glyph unicode="&#xab;" horiz-adv-x="1101" d="M92 510l326 479l186 -125l-237 -354l237 -354l-186 -125zM588 510l325 479l187 -125l-238 -354l238 -354l-187 -125z" />
<glyph unicode="&#xac;" horiz-adv-x="1196" d="M115 406v223h903v-510h-252v287h-651z" />
<glyph unicode="&#xad;" horiz-adv-x="692" d="M102 442v238h492v-238h-492z" />
<glyph unicode="&#xae;" horiz-adv-x="1638" d="M57 725q0 315 223.5 538.5t538.5 223.5t538.5 -223.5t223.5 -538.5t-223 -538.5t-539 -223.5q-315 0 -538.5 223.5t-223.5 538.5zM266 725q0 -238 162 -408t391 -170t391 170t162 408t-161.5 408t-391.5 170q-229 0 -391 -170t-162 -408zM537 350v783h313 q115 0 183.5 -66t68.5 -174q0 -86 -51.5 -145.5t-128.5 -67.5q45 -18 104 -107q53 -80 137 -223h-235q-25 41 -82 133q-47 82 -111 176v-309h-198zM735 813h53q103 0 103 78q0 80 -100 80h-56v-158z" />
<glyph unicode="&#xaf;" horiz-adv-x="808" d="M82 1364v160h643v-160h-643z" />
<glyph unicode="&#xb0;" horiz-adv-x="808" d="M49 1087q0 160 95 258.5t251 98.5q160 0 262 -103q90 -90 91 -249q0 -168 -97.5 -262.5t-255.5 -94.5t-252 95.5t-94 256.5zM272 1094q0 -119 23 -154q33 -51 102 -51q123 0 123 207q0 125 -41 164q-35 32 -86 32q-92 0 -112 -98q-8 -35 -9 -100z" />
<glyph unicode="&#xb1;" horiz-adv-x="972" d="M49 580v231h307v281h252v-281h307v-231h-307v-293h-252v293h-307zM53 0v231h858v-231h-858z" />
<glyph unicode="&#xb4;" horiz-adv-x="692" d="M80 1292l424 267l119 -213l-459 -205z" />
<glyph unicode="&#xb6;" horiz-adv-x="1261" d="M129 1065q0 385 477 385h551v-1708h-184v1561h-219v-1561h-185v950q-197 0 -318.5 104.5t-121.5 268.5z" />
<glyph unicode="&#xb7;" horiz-adv-x="622" d="M117 561q0 76 54 130t130 54t128 -54t52 -132q0 -74 -54 -127t-130 -53t-128 53t-52 129z" />
<glyph unicode="&#xb8;" horiz-adv-x="878" d="M279 -358l61 129q70 -31 106 -31q51 0 52 37q0 41 -52 41l-55 -13l-26 41l49 179l147 -13l-29 -78q147 -14 148 -161q0 -78 -59.5 -129.5t-163.5 -51.5q-88 0 -178 50z" />
<glyph unicode="&#xba;" horiz-adv-x="851" d="M53 473v160h748v-160h-748zM68 1153q0 186 97 299t255 113q170 0 268 -117q90 -106 90 -289q0 -188 -97 -299.5t-261 -111.5q-160 0 -256 110.5t-96 294.5zM301 1159q0 -121 26.5 -186.5t98.5 -65.5q121 0 121 254q0 160 -39 203q-33 37 -84 37q-78 0 -107 -92 q-16 -55 -16 -150z" />
<glyph unicode="&#xbb;" horiz-adv-x="1101" d="M88 156l238 354l-238 354l186 125l326 -479l-326 -479zM584 156l237 354l-237 354l186 125l326 -479l-326 -479z" />
<glyph unicode="&#xbf;" horiz-adv-x="917" d="M66 317q0 190 188 312q154 98 158 266q0 23 -4 72h235l10 -54q8 -43 9 -82q0 -176 -189 -311q-78 -55 -88 -67q-47 -43 -47 -99q0 -141 168 -141q100 0 221 94l125 -176q-150 -156 -397 -156q-164 0 -273 91q-117 96 -116 251zM328 1276q0 70 50 120t122 50q70 0 118 -49 t48 -121q0 -70 -49.5 -120t-120.5 -50q-70 0 -119 50t-49 120z" />
<glyph unicode="&#xc0;" d="M-20 0l466 1427h310l448 -1427h-307l-100 338h-418l-100 -338h-299zM235 1674l119 213l424 -267l-84 -151zM449 575h278q-25 74 -78 287q-14 61 -57 252l-68 -274q-36 -146 -75 -265z" />
<glyph unicode="&#xc1;" d="M-10 0l467 1427h309l448 -1427h-307l-100 338h-418l-100 -338h-299zM393 1620l424 266l119 -213l-459 -205zM459 575h278q-25 74 -78 287q-14 61 -57 252l-67 -274q-37 -146 -76 -265z" />
<glyph unicode="&#xc2;" d="M-20 0l466 1427h310l448 -1427h-307l-100 338h-418l-100 -338h-299zM213 1608l369 276l376 -276l-92 -150l-284 156l-277 -156zM449 575h278q-25 74 -78 287q-14 61 -57 252l-68 -274q-36 -146 -75 -265z" />
<glyph unicode="&#xc3;" d="M-20 0l466 1427h310l448 -1427h-307l-100 338h-418l-100 -338h-299zM236 1682q94 119 254 119q61 0 135 -35t133 -35q84 0 139 61l84 -155q-92 -119 -254 -119q-63 0 -136 35t-132 35q-84 0 -139 -60zM449 575h278q-25 74 -78 287q-14 61 -57 252l-68 -274 q-36 -146 -75 -265z" />
<glyph unicode="&#xc4;" d="M-20 0l466 1427h310l448 -1427h-307l-100 338h-418l-100 -338h-299zM229 1628q0 63 47 110.5t113 47.5q63 0 108.5 -46t45.5 -112q0 -63 -46 -110t-112 -47q-63 0 -109.5 47t-46.5 110zM449 575h278q-25 74 -78 287q-14 61 -57 252l-68 -274q-36 -146 -75 -265zM661 1628 q0 66 47.5 112t112.5 46q63 0 108.5 -46t45.5 -112q0 -63 -46 -110t-112 -47q-63 0 -109.5 46t-46.5 111z" />
<glyph unicode="&#xc5;" d="M-20 0l466 1427h310l448 -1427h-307l-100 338h-418l-100 -338h-299zM385 1678q0 88 65 152.5t153 64.5t150.5 -63.5t62.5 -153.5q0 -88 -63.5 -152.5t-154.5 -64.5q-88 0 -150.5 63.5t-62.5 153.5zM449 575h278q-25 74 -78 287q-14 61 -57 252l-68 -274 q-36 -146 -75 -265zM496 1678q0 -43 30.5 -74t71.5 -31q43 0 74 31t31 74t-30 73.5t-70 30.5q-45 0 -76 -30.5t-31 -73.5z" />
<glyph unicode="&#xc6;" horiz-adv-x="1765" d="M-61 0l847 1423h865l-37 -233h-488v-330h408v-233h-404v-381h547v-246h-837v338h-391l-191 -338h-319zM582 575h258v330q0 80 10 168q-106 -201 -268 -498z" />
<glyph unicode="&#xc7;" horiz-adv-x="1122" d="M76 682q0 262 96 442q82 156 227.5 243t317.5 87q231 0 360 -113l-129 -194q-106 80 -227 80q-158 0 -240 -121t-82 -369q0 -272 60 -381q88 -160 274 -159q131 0 244 92l131 -180q-162 -133 -395 -134h-35l-14 -41q147 -14 147 -161q0 -78 -59.5 -129.5t-163.5 -51.5 q-88 0 -178 50l61 129q70 -31 107 -31q51 0 51 37q0 41 -51 41q-12 0 -30 -6.5t-26 -6.5l-26 41l41 150q-227 57 -351 258q-111 180 -110 428z" />
<glyph unicode="&#xc8;" horiz-adv-x="1097" d="M172 0v1423h811l-37 -233h-487v-330h407v-233h-403v-381h538v-246h-829zM256 1674l119 213l424 -267l-84 -151z" />
<glyph unicode="&#xc9;" horiz-adv-x="1097" d="M172 0v1423h811l-37 -233h-487v-330h407v-233h-403v-381h538v-246h-829zM285 1620l424 267l119 -213l-459 -205z" />
<glyph unicode="&#xca;" horiz-adv-x="1097" d="M172 0v1423h811l-37 -233h-487v-330h407v-233h-403v-381h538v-246h-829zM195 1608l369 276l376 -276l-92 -150l-284 156l-277 -156z" />
<glyph unicode="&#xcb;" horiz-adv-x="1097" d="M172 0v1423h811l-37 -233h-487v-330h407v-233h-403v-381h538v-246h-829zM204 1628q0 63 47 110.5t113 47.5q63 0 108.5 -46t45.5 -112q0 -63 -46 -110t-112 -47q-63 0 -109.5 47t-46.5 110zM636 1628q0 66 47.5 112t112.5 46q63 0 108.5 -46t45.5 -112q0 -63 -46 -110 t-112 -47q-63 0 -109.5 46t-46.5 111z" />
<glyph unicode="&#xcc;" horiz-adv-x="643" d="M28 1674l119 213l424 -267l-84 -151zM172 0v1423h299v-1423h-299z" />
<glyph unicode="&#xcd;" horiz-adv-x="643" d="M98 1620l424 267l119 -213l-459 -205zM172 0v1423h299v-1423h-299z" />
<glyph unicode="&#xce;" horiz-adv-x="643" d="M-43 1608l369 276l376 -276l-92 -150l-284 156l-277 -156zM172 0v1423h299v-1423h-299z" />
<glyph unicode="&#xcf;" horiz-adv-x="643" d="M-45 1628q0 63 47 110.5t113 47.5q63 0 108.5 -46t45.5 -112q0 -63 -46 -110t-112 -47q-63 0 -109.5 47t-46.5 110zM172 0v1423h299v-1423h-299zM387 1628q0 66 47.5 112t112.5 46q63 0 108.5 -46t45.5 -112q0 -63 -46 -110t-112 -47q-63 0 -109.5 46t-46.5 111z" />
<glyph unicode="&#xd1;" horiz-adv-x="1333" d="M172 0v1423h317l273 -569q102 -215 156 -403q-20 225 -23 391l-6 581h272v-1423h-299l-244 545q-158 354 -192 467q10 -121 14 -404l9 -608h-277zM301 1682q94 119 254 119q61 0 135 -35t133 -35q84 0 139 61l84 -155q-92 -119 -254 -119q-63 0 -136 35t-132 35 q-84 0 -139 -60z" />
<glyph unicode="&#xd2;" horiz-adv-x="1368" d="M78 707q0 231 84 406t237 259q127 70 295 70q285 0 449 -193.5t164 -529.5q0 -502 -318 -676q-121 -66 -284 -66q-307 0 -463 201q-164 211 -164 529zM368 1674l119 213l424 -267l-84 -151zM397 707q0 -369 127 -461q68 -49 170 -49q150 0 216.5 120.5t66.5 393.5 q0 211 -37 329q-20 68 -76 117q-72 64 -174 64q-154 0 -221 -125q-72 -133 -72 -389z" />
<glyph unicode="&#xd3;" horiz-adv-x="1368" d="M78 707q0 231 84 406t237 259q127 70 295 70q285 0 449 -193.5t164 -529.5q0 -502 -318 -676q-121 -66 -284 -66q-307 0 -463 201q-164 211 -164 529zM397 707q0 -369 127 -461q68 -49 170 -49q150 0 216.5 120.5t66.5 393.5q0 211 -37 329q-20 68 -76 117 q-72 64 -174 64q-154 0 -221 -125q-72 -133 -72 -389zM479 1620l424 267l119 -213l-459 -205z" />
<glyph unicode="&#xd4;" horiz-adv-x="1368" d="M78 707q0 231 84 406t237 259q127 70 295 70q285 0 449 -193.5t164 -529.5q0 -502 -318 -676q-121 -66 -284 -66q-307 0 -463 201q-164 211 -164 529zM295 1608l369 276l376 -276l-92 -150l-284 156l-277 -156zM397 707q0 -369 127 -461q68 -49 170 -49 q150 0 216.5 120.5t66.5 393.5q0 211 -37 329q-20 68 -76 117q-72 64 -174 64q-154 0 -221 -125q-72 -133 -72 -389z" />
<glyph unicode="&#xd5;" horiz-adv-x="1368" d="M78 707q0 231 84 406t237 259q127 70 295 70q285 0 449 -193.5t164 -529.5q0 -502 -318 -676q-121 -66 -284 -66q-307 0 -463 201q-164 211 -164 529zM299 1682q94 119 254 119q61 0 135 -35t133 -35q84 0 139 61l84 -155q-92 -119 -254 -119q-63 0 -136 35t-132 35 q-84 0 -139 -60zM397 707q0 -369 127 -461q68 -49 170 -49q150 0 216.5 120.5t66.5 393.5q0 211 -37 329q-20 68 -76 117q-72 64 -174 64q-154 0 -221 -125q-72 -133 -72 -389z" />
<glyph unicode="&#xd6;" horiz-adv-x="1368" d="M78 707q0 231 84 406t237 259q127 70 295 70q285 0 449 -193.5t164 -529.5q0 -502 -318 -676q-121 -66 -284 -66q-307 0 -463 201q-164 211 -164 529zM327 1628q0 63 47 110.5t113 47.5q63 0 108.5 -46t45.5 -112q0 -63 -46 -110t-112 -47q-63 0 -109.5 47t-46.5 110z M397 707q0 -369 127 -461q68 -49 170 -49q150 0 216.5 120.5t66.5 393.5q0 211 -37 329q-20 68 -76 117q-72 64 -174 64q-154 0 -221 -125q-72 -133 -72 -389zM759 1628q0 66 47.5 112t112.5 46q63 0 108.5 -46t45.5 -112q0 -63 -46 -110t-112 -47q-63 0 -109.5 46 t-46.5 111z" />
<glyph unicode="&#xd8;" horiz-adv-x="1404" d="M84 707q0 231 84 407t238 258q129 70 294 70q170 0 297 -72l125 203l150 -84l-139 -225q180 -193 180 -545q0 -502 -318 -676q-121 -66 -284 -66q-190 0 -318 70l-137 -227l-150 84l156 256q-178 217 -178 547zM403 707q0 -164 25 -275l440 725q-70 63 -172 64 q-156 0 -221 -125q-72 -137 -72 -389zM518 252q80 -55 182 -55q150 0 216.5 120.5t66.5 393.5q0 160 -22 268z" />
<glyph unicode="&#xd9;" horiz-adv-x="1351" d="M164 432v991h293v-936q0 -123 24 -170q51 -98 195 -98q197 0 217 166q4 35 4 127v911h291v-958q0 -156 -23 -223q-35 -104 -141 -176q-133 -92 -342 -93q-354 0 -473 220q-45 80 -45 239zM307 1674l119 213l424 -267l-84 -151z" />
<glyph unicode="&#xda;" horiz-adv-x="1351" d="M164 432v991h293v-936q0 -123 24 -170q51 -98 195 -98q197 0 217 166q4 35 4 127v911h291v-958q0 -156 -23 -223q-35 -104 -141 -176q-133 -92 -342 -93q-354 0 -473 220q-45 80 -45 239zM367 1620l424 267l119 -213l-459 -205z" />
<glyph unicode="&#xdb;" horiz-adv-x="1351" d="M164 432v991h293v-936q0 -123 24 -170q51 -98 195 -98q197 0 217 166q4 35 4 127v911h291v-958q0 -156 -23 -223q-35 -104 -141 -176q-133 -92 -342 -93q-354 0 -473 220q-45 80 -45 239zM254 1608l369 276l376 -276l-92 -150l-284 156l-277 -156z" />
<glyph unicode="&#xdc;" horiz-adv-x="1351" d="M164 432v991h293v-936q0 -123 24 -170q51 -98 195 -98q197 0 217 166q4 35 4 127v911h291v-958q0 -156 -23 -223q-35 -104 -141 -176q-133 -92 -342 -93q-354 0 -473 220q-45 80 -45 239zM284 1628q0 63 47 110.5t113 47.5q63 0 108.5 -46t45.5 -112q0 -63 -46 -110 t-112 -47q-63 0 -109.5 47t-46.5 110zM716 1628q0 66 47.5 112t112.5 46q63 0 108.5 -46t45.5 -112q0 -63 -46 -110t-112 -47q-63 0 -109.5 46t-46.5 111z" />
<glyph unicode="&#xdf;" horiz-adv-x="1269" d="M16 836v213h168v32q0 104 17 158q20 72 86 131q125 115 325 115q205 0 325 -91t120 -247q0 -166 -152 -256l-65 -39q-27 -16 -27 -37q0 -29 49 -51q162 -74 223 -137q86 -90 86 -232q0 -188 -129 -305t-337 -117q-102 0 -154 25l61 188q27 -10 62 -10q197 0 196 209 q0 76 -43 123q-39 41 -75 65l-93 60q-90 57 -90 166q0 90 68 143l47 37q66 51 66 131q0 82 -37 123t-103 41q-117 0 -141 -121q-6 -31 -6 -143v-799q0 -123 -41 -211h-279q41 131 41 260v576h-168z" />
<glyph unicode="&#xe0;" horiz-adv-x="1056" d="M76 289q0 360 504 360q33 0 61 -2v43q0 90 -24.5 123t-98.5 33q-127 0 -303 -119l-117 197q72 45 170 86q147 61 287 61q274 0 338 -182q20 -59 18 -189l-6 -352v-18q0 -82 17 -123q20 -47 82 -92l-146 -168q-106 45 -147 127q-25 -29 -64 -56q-80 -57 -211 -57 q-174 0 -267 85t-93 243zM231 1346l119 213l424 -267l-84 -151zM369 299q0 -61 33.5 -99t86.5 -38q78 0 144 71l4 226h-12q-145 0 -200.5 -34t-55.5 -126z" />
<glyph unicode="&#xe1;" horiz-adv-x="1056" d="M76 289q0 360 504 360q39 0 61 -2v43q0 90 -24.5 123t-98.5 33q-127 0 -303 -119l-117 197q70 45 170 86q147 61 287 61q274 0 338 -182q20 -59 18 -189l-6 -352v-18q0 -82 17 -123q20 -47 82 -92l-146 -168q-106 45 -147 127q-113 -113 -275 -113q-174 0 -267 85 t-93 243zM295 1292l424 267l119 -213l-459 -205zM369 299q0 -61 33.5 -99t86.5 -38q78 0 144 71l4 226h-12q-145 0 -200.5 -34t-55.5 -126z" />
<glyph unicode="&#xe2;" horiz-adv-x="1056" d="M76 289q0 360 504 360q39 0 61 -2v43q0 90 -24.5 123t-98.5 33q-127 0 -303 -119l-117 197q70 45 170 86q147 61 287 61q274 0 338 -182q20 -59 18 -189l-6 -352v-18q0 -82 17 -123q20 -47 82 -92l-146 -168q-106 45 -147 127q-113 -113 -275 -113q-174 0 -267 85 t-93 243zM137 1280l369 276l376 -276l-92 -150l-284 156l-277 -156zM369 299q0 -61 33.5 -99t86.5 -38q78 0 144 71l4 226h-12q-145 0 -200.5 -34t-55.5 -126z" />
<glyph unicode="&#xe3;" horiz-adv-x="1056" d="M76 289q0 360 504 360q39 0 61 -2v43q0 90 -24.5 123t-98.5 33q-127 0 -303 -119l-117 197q70 45 170 86q147 61 287 61q274 0 338 -182q20 -59 18 -189l-6 -352v-18q0 -82 17 -123q20 -47 82 -92l-146 -168q-106 45 -147 127q-113 -113 -275 -113q-174 0 -267 85 t-93 243zM152 1354q94 119 254 119q61 0 135 -35t133 -35q84 0 139 61l84 -155q-92 -119 -254 -119q-63 0 -136 35t-132 35q-84 0 -139 -60zM369 299q0 -61 33.5 -99t86.5 -38q78 0 144 71l4 226h-12q-145 0 -200.5 -34t-55.5 -126z" />
<glyph unicode="&#xe4;" horiz-adv-x="1056" d="M76 289q0 360 504 360q33 0 61 -2v43q0 90 -24.5 123t-98.5 33q-127 0 -303 -119l-117 197q74 47 170 86q152 61 287 61q274 0 338 -182q20 -59 18 -189l-6 -352v-18q0 -82 17 -123q20 -47 82 -92l-146 -168q-106 45 -147 127q-43 -41 -64 -56q-80 -57 -211 -57 q-174 0 -267 85t-93 243zM135 1300q0 68 49 116t117 48q66 0 113 -48t47 -116t-48 -115.5t-116 -47.5q-66 0 -114 48t-48 115zM369 299q0 -61 33.5 -99t86.5 -38q78 0 144 71l4 226h-12q-145 0 -200.5 -34t-55.5 -126zM567 1300q0 68 48.5 116t117.5 48q66 0 113 -48 t47 -116t-48 -115.5t-116 -47.5t-115 48t-47 115z" />
<glyph unicode="&#xe5;" horiz-adv-x="1056" d="M76 289q0 360 504 360q39 0 61 -2v43q0 90 -24.5 123t-98.5 33q-127 0 -303 -119l-117 197q70 45 170 86q147 61 287 61q274 0 338 -182q20 -59 18 -189l-6 -352v-18q0 -82 17 -123q20 -47 82 -92l-146 -168q-106 45 -147 127q-113 -113 -275 -113q-174 0 -267 85 t-93 243zM313 1350q0 88 65 152.5t153 64.5t150.5 -63.5t62.5 -153.5q0 -88 -63.5 -152.5t-154.5 -64.5q-88 0 -150.5 63.5t-62.5 153.5zM369 299q0 -61 33.5 -99t86.5 -38q78 0 144 71l4 226h-12q-145 0 -200.5 -34t-55.5 -126zM424 1350q0 -43 30.5 -74t71.5 -31 q43 0 74 31t31 74t-30 73.5t-70 30.5q-45 0 -76 -30.5t-31 -73.5z" />
<glyph unicode="&#xe6;" horiz-adv-x="1593" d="M66 289q0 360 503 360h29q18 -2 33 -2v43q0 90 -24.5 123t-98.5 33q-127 0 -303 -119l-117 197q225 147 457 147q145 0 266 -96q102 94 250 94q195 0 303 -111q139 -143 139 -458v-64h-606v-8q0 -254 221 -254q141 0 266 105l107 -164q-178 -145 -395 -146 q-106 0 -171 22t-143 81l-37 37q-39 -53 -108 -93q-100 -55 -211 -55q-174 0 -267 85t-93 243zM358 299q0 -61 34 -99t87 -38q78 0 146 74l2 223h-13q-145 0 -200.5 -34t-55.5 -126zM901 637h318v12q0 106 -33 158q-39 61 -121 61q-164 0 -164 -227v-4z" />
<glyph unicode="&#xe7;" horiz-adv-x="901" d="M74 516q0 340 215 485q115 78 260 78q109 0 203 -47q41 -20 102 -74l-133 -180q-88 82 -166 82q-178 0 -178 -352q0 -199 53 -264q47 -59 123 -60q90 0 188 86l17 15l125 -166q-51 -51 -97 -78q-111 -66 -239 -66l-15 -41q147 -14 148 -161q0 -78 -59.5 -129.5 t-163.5 -51.5q-88 0 -178 50l61 129q70 -31 106 -31q51 0 52 37q0 41 -52 41q-12 0 -29.5 -6.5t-25.5 -6.5l-26 41l38 144q-158 39 -243.5 175t-85.5 351z" />
<glyph unicode="&#xe8;" horiz-adv-x="1044" d="M72 514q0 270 129 413.5t331 143.5q195 0 304 -110q139 -143 139 -459v-64h-606v-8q0 -254 221 -254q141 1 266 105l107 -164q-178 -145 -396 -146q-225 0 -360 147.5t-135 395.5zM184 1346l119 213l424 -267l-84 -151zM373 639h317v12q0 106 -33 158q-39 61 -120 61 q-164 0 -164 -227v-4z" />
<glyph unicode="&#xe9;" horiz-adv-x="1044" d="M72 514q0 270 129 413.5t331 143.5q195 0 304 -110q139 -143 139 -459v-64h-606v-8q0 -254 221 -254q141 1 266 105l107 -164q-178 -145 -396 -146q-225 0 -360 147.5t-135 395.5zM289 1292l424 267l119 -213l-459 -205zM373 639h317v12q0 106 -33 158q-39 61 -120 61 q-164 0 -164 -227v-4z" />
<glyph unicode="&#xea;" horiz-adv-x="1044" d="M72 514q0 270 129 413.5t331 143.5q195 0 304 -110q139 -143 139 -459v-64h-606v-8q0 -254 221 -254q141 1 266 105l107 -164q-178 -145 -396 -146q-225 0 -360 147.5t-135 395.5zM162 1280l369 276l376 -276l-92 -150l-284 156l-277 -156zM373 639h317v12q0 106 -33 158 q-39 61 -120 61q-164 0 -164 -227v-4z" />
<glyph unicode="&#xeb;" horiz-adv-x="1044" d="M72 514q0 270 129 413.5t331 143.5q195 0 304 -110q139 -143 139 -459v-64h-606v-8q0 -254 221 -254q141 1 266 105l107 -164q-178 -145 -396 -146q-225 0 -360 147.5t-135 395.5zM161 1300q0 63 47 110.5t113 47.5q63 0 108.5 -46t45.5 -112q0 -63 -46 -110t-112 -47 q-63 0 -109.5 47t-46.5 110zM373 639h317v12q0 106 -33 158q-39 61 -120 61q-164 0 -164 -227v-4zM593 1300q0 66 47.5 112t112.5 46q63 0 108.5 -46t45.5 -112q0 -63 -46 -110t-112 -47q-63 0 -109.5 46t-46.5 111z" />
<glyph unicode="&#xec;" horiz-adv-x="561" d="M-41 1346l119 213l424 -267l-84 -151zM143 0v1030l275 43v-1073h-275z" />
<glyph unicode="&#xed;" horiz-adv-x="561" d="M76 1292l424 267l119 -213l-459 -205zM143 0v1030l275 43v-1073h-275z" />
<glyph unicode="&#xee;" horiz-adv-x="561" d="M-78 1280l369 276l376 -276l-92 -150l-284 156l-277 -156zM143 0v1030l275 43v-1073h-275z" />
<glyph unicode="&#xef;" horiz-adv-x="561" d="M-70 1300q0 63 47 110.5t113 47.5q63 0 108.5 -46t45.5 -112q0 -63 -46 -110t-112 -47q-63 0 -109.5 47t-46.5 110zM143 0v1030l275 43v-1073h-275zM362 1300q0 66 47.5 112t112.5 46q63 0 108.5 -46t45.5 -112q0 -63 -46 -110t-112 -47q-63 0 -109.5 46t-46.5 111z" />
<glyph unicode="&#xf1;" horiz-adv-x="1110" d="M106 1006l244 69q39 -68 39 -131q37 27 121 78q84 45 188 45q88 0 158 -42t94 -110q20 -55 21 -149v-766h-271v682q0 78 -12 106q-18 47 -80 48q-86 0 -190 -95v-741h-275v760q0 142 -37 246zM181 1354q94 119 254 119q61 0 135 -35t133 -35q84 0 139 61l84 -155 q-92 -119 -254 -119q-63 0 -136 35t-132 35q-84 0 -139 -60z" />
<glyph unicode="&#xf2;" horiz-adv-x="1079" d="M66 520q0 248 129 398.5t342 150.5q223 0 356 -158q121 -141 121 -383q0 -258 -130 -404.5t-347 -146.5q-213 0 -342 147.5t-129 395.5zM184 1346l119 213l424 -267l-84 -151zM371 526q0 -182 35.5 -266t138.5 -84q170 0 170 354q0 209 -56 281q-42 55 -118 55 q-104 0 -142 -106q-29 -84 -28 -234z" />
<glyph unicode="&#xf3;" horiz-adv-x="1079" d="M66 520q0 248 129 398.5t342 150.5q223 0 356 -158q121 -141 121 -383q0 -258 -130 -404.5t-347 -146.5q-213 0 -342 147.5t-129 395.5zM295 1292l424 267l119 -213l-459 -205zM371 526q0 -182 35.5 -266t138.5 -84q170 0 170 354q0 209 -56 281q-42 55 -118 55 q-104 0 -142 -106q-29 -84 -28 -234z" />
<glyph unicode="&#xf4;" horiz-adv-x="1079" d="M66 520q0 248 129 398.5t342 150.5q223 0 356 -158q121 -141 121 -383q0 -258 -130 -404.5t-347 -146.5q-213 0 -342 147.5t-129 395.5zM168 1280l369 276l376 -276l-92 -150l-284 156l-277 -156zM371 526q0 -182 35.5 -266t138.5 -84q170 0 170 354q0 209 -56 281 q-42 55 -118 55q-104 0 -142 -106q-29 -84 -28 -234z" />
<glyph unicode="&#xf5;" horiz-adv-x="1079" d="M66 520q0 248 129 398.5t342 150.5q223 0 356 -158q121 -141 121 -383q0 -258 -130 -404.5t-347 -146.5q-213 0 -342 147.5t-129 395.5zM164 1354q94 119 254 119q61 0 135 -35t133 -35q84 0 139 61l84 -155q-92 -119 -254 -119q-63 0 -136 35t-132 35q-84 0 -139 -60z M371 526q0 -182 35.5 -266t138.5 -84q170 0 170 354q0 209 -56 281q-42 55 -118 55q-104 0 -142 -106q-29 -84 -28 -234z" />
<glyph unicode="&#xf6;" horiz-adv-x="1079" d="M66 520q0 248 129 398.5t342 150.5q223 0 356 -158q121 -141 121 -383q0 -258 -130 -404.5t-347 -146.5q-213 0 -342 147.5t-129 395.5zM161 1300q0 63 47 110.5t113 47.5q63 0 108.5 -46t45.5 -112q0 -63 -46 -110t-112 -47q-63 0 -109.5 47t-46.5 110zM371 526 q0 -182 35.5 -266t138.5 -84q170 0 170 354q0 209 -56 281q-42 55 -118 55q-104 0 -142 -106q-29 -84 -28 -234zM593 1300q0 66 47.5 112t112.5 46q63 0 108.5 -46t45.5 -112q0 -63 -46 -110t-112 -47q-63 0 -109.5 46t-46.5 111z" />
<glyph unicode="&#xf7;" horiz-adv-x="1802" d="M70 856v193h100q0 23 -5 70.5t-5 72.5q0 156 88 241t250 85q131 0 247 -66l-88 -170q-72 35 -112 35q-115 0 -115 -119v-149h358q0 23 -5 72.5t-5 70.5q0 156 88 241t250 85q141 0 227 -50l-88 -170q-39 18 -92 19q-115 0 -114 -119v-149h626v-1049h-274v856h-350v-856 h-269v856h-350v-856h-268v856h-94zM1370 1337q0 70 50 120t122 50q70 0 118 -49t48 -121q0 -70 -49 -120t-121 -50q-70 0 -119 50.5t-49 119.5z" />
<glyph unicode="&#xf8;" horiz-adv-x="1138" d="M94 520q0 248 129 398.5t342 150.5q125 0 223 -49l121 197l127 -72l-133 -215q139 -137 139 -402q0 -258 -130 -404.5t-347 -146.5q-117 0 -211 48l-118 -197l-127 72l127 211q-141 152 -142 409zM399 526q0 -20 7 -137l266 438q-43 39 -103 39q-104 0 -141 -106 q-29 -84 -29 -234zM469 213q47 -37 104 -37q170 0 170 354q0 86 -6 123z" />
<glyph unicode="&#xf9;" horiz-adv-x="1089" d="M121 352v672l270 51v-674q0 -127 23.5 -174t95.5 -47q51 0 102.5 31t67.5 70v737l262 55v-801q0 -115 64 -190l-195 -111q-55 39 -82 103q-104 -100 -276 -101q-111 0 -197 47.5t-113 122.5q-23 66 -22 209zM264 1346l119 213l424 -267l-84 -151z" />
<glyph unicode="&#xfa;" horiz-adv-x="1089" d="M121 352v672l270 51v-674q0 -127 23.5 -174t95.5 -47q51 0 102.5 31t67.5 70v737l262 55v-801q0 -115 64 -190l-195 -111q-55 39 -82 103q-104 -100 -276 -101q-111 0 -197 47.5t-113 122.5q-23 66 -22 209zM295 1292l424 267l119 -213l-459 -205z" />
<glyph unicode="&#xfb;" horiz-adv-x="1089" d="M121 352v672l270 51v-674q0 -127 23.5 -174t95.5 -47q51 0 102.5 31t67.5 70v737l262 55v-801q0 -115 64 -190l-195 -111q-55 39 -82 103q-104 -100 -276 -101q-111 0 -197 47.5t-113 122.5q-23 66 -22 209zM180 1280l369 276l376 -276l-92 -150l-284 156l-277 -156z" />
<glyph unicode="&#xfc;" horiz-adv-x="1089" d="M121 352v672l270 51v-674q0 -127 23.5 -174t95.5 -47q51 0 102.5 31t67.5 70v737l262 55v-801q0 -115 64 -190l-195 -111q-55 39 -82 103q-104 -100 -276 -101q-111 0 -197 47.5t-113 122.5q-23 66 -22 209zM180 1300q0 63 47 110.5t113 47.5q63 0 108.5 -46t45.5 -112 q0 -63 -46 -110t-112 -47q-63 0 -109.5 47t-46.5 110zM612 1300q0 66 47.5 112t112.5 46q63 0 108.5 -46t45.5 -112q0 -63 -46 -110t-112 -47q-63 0 -109.5 46t-46.5 111z" />
<glyph unicode="&#xff;" horiz-adv-x="1017" d="M-12 1032l280 33l183 -612q18 -59 55 -217q10 57 33 167q14 63 41 146l157 500h289l-381 -1065q-96 -270 -200.5 -347t-254.5 -96l-94 180q119 33 170 70q43 31 78 86q29 45 59 123h-69zM180 1300q0 63 47 110.5t113 47.5q63 0 108.5 -46t45.5 -112q0 -63 -46 -110 t-112 -47q-63 0 -109.5 47t-46.5 110zM612 1300q0 66 47.5 112t112.5 46q63 0 108.5 -46t45.5 -112q0 -63 -46 -110t-112 -47q-63 0 -109.5 46t-46.5 111z" />
<glyph unicode="&#x152;" horiz-adv-x="1751" d="M72 715q0 293 143 485q119 160 346 205q94 18 260 18h813l-37 -233h-485v-330h406v-233h-406v-381h549v-246h-836q-242 0 -340 23q-121 29 -219 124q-195 188 -194 568zM414 741q0 -281 71.5 -399.5t225.5 -118.5q63 1 131 21v915q-84 20 -154 21q-274 0 -274 -439z" />
<glyph unicode="&#x153;" horiz-adv-x="1638" d="M92 520q0 248 129 398.5t342 150.5q186 0 307 -108q117 109 299 108q195 0 304 -111q139 -143 139 -458v-64h-606v-8q0 -254 221 -254q141 0 266 105l106 -164q-178 -145 -395 -146q-201 0 -330 117q-121 -109 -311 -109q-213 0 -342 147.5t-129 395.5zM397 526 q0 -182 36 -266t138 -84q170 0 170 354q0 209 -55 281q-43 55 -119 55q-104 0 -141 -106q-29 -84 -29 -234zM1010 637h317q0 119 -33 170q-39 61 -120 61q-164 0 -164 -231z" />
<glyph unicode="&#x178;" horiz-adv-x="1138" d="M-29 1423h344l183 -389q45 -96 71 -182q23 55 76 178l184 393h338l-454 -837v-586h-299v586zM207 1628q0 63 47 110.5t113 47.5q63 0 108 -46t45 -112q0 -63 -46 -110.5t-112 -47.5q-63 0 -109 47.5t-46 110.5zM639 1628q0 66 47 112t113 46q63 0 108 -46t45 -112 q0 -63 -46 -110.5t-111 -47.5q-63 0 -109.5 46.5t-46.5 111.5z" />
<glyph unicode="&#x2c6;" horiz-adv-x="823" d="M39 1280l369 276l376 -276l-92 -150l-284 156l-277 -156z" />
<glyph unicode="&#x2dc;" horiz-adv-x="804" d="M29 1354q94 119 254 119q61 0 135 -35t133 -35q84 0 139 61l84 -155q-92 -119 -254 -119q-63 0 -136 35t-132 35q-84 0 -139 -60z" />
<glyph unicode="&#x2000;" horiz-adv-x="947" />
<glyph unicode="&#x2001;" horiz-adv-x="1895" />
<glyph unicode="&#x2002;" horiz-adv-x="947" />
<glyph unicode="&#x2003;" horiz-adv-x="1895" />
<glyph unicode="&#x2004;" horiz-adv-x="631" />
<glyph unicode="&#x2005;" horiz-adv-x="473" />
<glyph unicode="&#x2006;" horiz-adv-x="315" />
<glyph unicode="&#x2007;" horiz-adv-x="315" />
<glyph unicode="&#x2008;" horiz-adv-x="236" />
<glyph unicode="&#x2009;" horiz-adv-x="379" />
<glyph unicode="&#x200a;" horiz-adv-x="105" />
<glyph unicode="&#x2010;" horiz-adv-x="692" d="M102 442v238h492v-238h-492z" />
<glyph unicode="&#x2011;" horiz-adv-x="692" d="M102 442v238h492v-238h-492z" />
<glyph unicode="&#x2012;" horiz-adv-x="692" d="M102 442v238h492v-238h-492z" />
<glyph unicode="&#x2013;" horiz-adv-x="985" d="M-6 457v211h997v-211h-997z" />
<glyph unicode="&#x2014;" horiz-adv-x="1970" d="M254 457v211h1460v-211h-1460z" />
<glyph unicode="&#x2018;" horiz-adv-x="557" d="M80 1098q0 133 80 235t209 135l108 -114q-147 -33 -147 -117q0 -37 53 -66q80 -45 80 -143q0 -74 -52.5 -125t-125.5 -51q-88 0 -146.5 69.5t-58.5 176.5z" />
<glyph unicode="&#x2019;" horiz-adv-x="546" d="M66 954q147 37 147 117q0 35 -53 66q-80 47 -80 143q0 74 51 125t127 51q90 0 147.5 -69.5t57.5 -176.5q0 -133 -80 -234t-209 -134z" />
<glyph unicode="&#x201a;" horiz-adv-x="546" d="M78 -182q147 33 147 116q0 35 -53 66q-80 47 -80 143q0 74 52.5 125t125.5 51q90 0 147.5 -69.5t57.5 -175.5q0 -133 -80 -235.5t-209 -135.5z" />
<glyph unicode="&#x201c;" horiz-adv-x="1001" d="M80 1100q0 133 80 235t209 135l108 -114q-147 -33 -147 -117q0 -35 53 -65q80 -47 80 -144q0 -74 -52.5 -125t-127.5 -51q-88 0 -145.5 69.5t-57.5 176.5zM543 1100q0 133 79.5 235t206.5 135l109 -114q-145 -35 -145 -117q0 -33 53 -65q80 -49 80 -144q0 -74 -52.5 -125 t-128.5 -51q-88 0 -145 68.5t-57 177.5z" />
<glyph unicode="&#x201d;" horiz-adv-x="1001" d="M72 954q147 37 147 117q0 35 -53 66q-80 47 -80 143q0 74 51 125t127 51q90 0 147.5 -69.5t57.5 -176.5q0 -133 -80 -234t-209 -134zM535 954q145 37 145 117q0 35 -51 66q-80 47 -80 143q0 74 51 125t127 51q88 0 145.5 -68.5t57.5 -177.5q0 -133 -79 -234t-208 -134z " />
<glyph unicode="&#x201e;" horiz-adv-x="1007" d="M74 -182q147 33 147 116q0 35 -53 66q-80 47 -80 143q0 74 52.5 125t125.5 51q90 0 147.5 -69.5t57.5 -175.5q0 -133 -80 -235.5t-209 -135.5zM537 -182q145 35 145 116q0 35 -51 66q-80 47 -80 143q0 74 51 125t127 51q90 0 147.5 -69.5t57.5 -175.5q0 -133 -80 -235.5 t-209 -135.5z" />
<glyph unicode="&#x2022;" horiz-adv-x="1024" d="M150 725q0 152 106 257t256 105q152 0 257 -105t105 -257q0 -150 -105 -256.5t-257 -106.5q-150 0 -256 106.5t-106 256.5z" />
<glyph unicode="&#x2026;" horiz-adv-x="1531" d="M74 150q0 74 52 126t126 52q76 0 129 -52.5t53 -125.5q0 -76 -53 -129.5t-127 -53.5q-76 0 -128 53.5t-52 129.5zM586 150q0 74 52 126t126 52q76 0 129 -52.5t53 -125.5q0 -76 -53 -129.5t-127 -53.5q-76 0 -128 53.5t-52 129.5zM1098 150q0 74 52 126t126 52 q76 0 129 -52.5t53 -125.5q0 -76 -53 -129.5t-127 -53.5q-76 0 -128 53.5t-52 129.5z" />
<glyph unicode="&#x202f;" horiz-adv-x="379" />
<glyph unicode="&#x2039;" horiz-adv-x="651" d="M78 510l325 479l187 -125l-238 -354l238 -354l-187 -125z" />
<glyph unicode="&#x203a;" horiz-adv-x="651" d="M76 156l237 354l-237 354l186 125l326 -479l-326 -479z" />
<glyph unicode="&#x205f;" horiz-adv-x="473" />
<glyph unicode="&#x2122;" horiz-adv-x="2113" d="M104 1253v197h709v-197h-244v-647h-221v647h-244zM993 606v844h297l201 -549l201 549h297v-844h-222v549h-4l-200 -549h-144l-200 549h-5v-549h-221z" />
<glyph unicode="&#xe000;" horiz-adv-x="1075" d="M0 0v1075h1075v-1075h-1075z" />
</font>
</defs>
</svg>
